# Low-poly rocket — created for Simulation Path, CC0-1.0
o LowPolyRocket

# Lower ring, clockwise when viewed from above
v 0.500000 -0.800000 0.000000
v 0.353553 -0.800000 0.353553
v 0.000000 -0.800000 0.500000
v -0.353553 -0.800000 0.353553
v -0.500000 -0.800000 0.000000
v -0.353553 -0.800000 -0.353553
v 0.000000 -0.800000 -0.500000
v 0.353553 -0.800000 -0.353553

# Upper ring
v 0.500000 0.800000 0.000000
v 0.353553 0.800000 0.353553
v 0.000000 0.800000 0.500000
v -0.353553 0.800000 0.353553
v -0.500000 0.800000 0.000000
v -0.353553 0.800000 -0.353553
v 0.000000 0.800000 -0.500000
v 0.353553 0.800000 -0.353553

v 0.000000 1.800000 0.000000
v 0.000000 -0.800000 0.000000

# Body sides
f 1 9 10
f 1 10 2
f 2 10 11
f 2 11 3
f 3 11 12
f 3 12 4
f 4 12 13
f 4 13 5
f 5 13 14
f 5 14 6
f 6 14 15
f 6 15 7
f 7 15 16
f 7 16 8
f 8 16 9
f 8 9 1

# Nose cone
f 9 17 10
f 10 17 11
f 11 17 12
f 12 17 13
f 13 17 14
f 14 17 15
f 15 17 16
f 16 17 9

# Base cap
f 1 2 18
f 2 3 18
f 3 4 18
f 4 5 18
f 5 6 18
f 6 7 18
f 7 8 18
f 8 1 18
